<svg id="Vrstva_1" data-name="Vrstva 1" xmlns="http://www.w3.org/2000/svg" xmlns:xlink="http://www.w3.org/1999/xlink" viewBox="0 0 162 20"><defs><style>.cls-1{isolation:isolate;}.cls-2{fill:#414042;}.cls-3{fill:url(#Nepojmenovaný_přechod);}.cls-4{fill:none;}</style><linearGradient id="Nepojmenovaný_přechod" x1="65.82" y1="17214.26" x2="95.73" y2="17214.26" gradientTransform="translate(0 -17203.89)" gradientUnits="userSpaceOnUse"><stop offset="0" stop-color="#c46837"/><stop offset="0.21" stop-color="#f0b05b"/><stop offset="0.53" stop-color="#dd8043"/><stop offset="0.69" stop-color="#db813e"/><stop offset="0.85" stop-color="#efac6d"/><stop offset="1" stop-color="#c46837"/></linearGradient></defs><title>logo-black2222</title><g class="cls-1"><path class="cls-2" d="M.11,13.76V6.6h.95v3.55L4.61,6.6H5.9l-3,2.9L6,13.76H4.78L2.23,10.14,1.06,11.28v2.48Z" transform="translate(0 0)"/><path class="cls-2" d="M17.57,13.76V6.6h.95v7.16Z" transform="translate(0 0)"/><path class="cls-2" d="M30.77,13.76V6.6h1l3.76,5.62V6.6h.91v7.16h-1L31.68,8.14v5.63Z" transform="translate(0 0)"/><path class="cls-2" d="M48.58,13.76V6.6h1l3.76,5.62V6.6h.91v7.16h-1L49.49,8.14v5.63Z" transform="translate(0 0)"/></g><g class="cls-1"><g class="cls-1"><path class="cls-2" d="M104.37,13.76V6.6h.95v6.31h3.53v.84Z" transform="translate(0 0)"/></g><g class="cls-1"><path class="cls-2" d="M120.14,13.76l2.75-7.16h1l2.93,7.16h-1.08l-.83-2.17h-3l-.79,2.17Zm2.07-2.94h2.43l-.75-2q-.34-.9-.51-1.48A9.19,9.19,0,0,1,123,8.72Z" transform="translate(0 0)"/><path class="cls-2" d="M138.14,13.76V6.6h2.69a3.33,3.33,0,0,1,1.32.22,1.69,1.69,0,0,1,.78.67,1.76,1.76,0,0,1,.28.94,1.62,1.62,0,0,1-.25.86,1.78,1.78,0,0,1-.75.65,1.87,1.87,0,0,1,1,.65,1.73,1.73,0,0,1,.35,1.08,2.09,2.09,0,0,1-.21.93,1.81,1.81,0,0,1-.52.67,2.2,2.2,0,0,1-.78.35,4.8,4.8,0,0,1-1.15.12Zm.95-4.15h1.55a3.44,3.44,0,0,0,.9-.08,1,1,0,0,0,.54-.36,1,1,0,0,0,.18-.62,1.15,1.15,0,0,0-.17-.63.86.86,0,0,0-.49-.37,4.05,4.05,0,0,0-1.09-.1h-1.43Zm0,3.31h1.78a4.15,4.15,0,0,0,.64,0,1.55,1.55,0,0,0,.55-.2,1,1,0,0,0,.36-.4,1.25,1.25,0,0,0,.14-.6,1.19,1.19,0,0,0-.21-.7,1.08,1.08,0,0,0-.57-.41,3.51,3.51,0,0,0-1-.12h-1.66Z" transform="translate(0 0)"/><path class="cls-2" d="M155.12,11.46l.89-.08a2,2,0,0,0,.3.88,1.62,1.62,0,0,0,.72.56,2.75,2.75,0,0,0,1.1.21,2.63,2.63,0,0,0,1-.16,1.33,1.33,0,0,0,.62-.44,1,1,0,0,0,.2-.61.93.93,0,0,0-.2-.59,1.44,1.44,0,0,0-.64-.42,12.27,12.27,0,0,0-1.27-.35,6.55,6.55,0,0,1-1.38-.45,1.93,1.93,0,0,1-.76-.67,1.63,1.63,0,0,1-.25-.89,1.82,1.82,0,0,1,.31-1,1.91,1.91,0,0,1,.9-.72,3.41,3.41,0,0,1,1.31-.24,3.57,3.57,0,0,1,1.4.26,2,2,0,0,1,.93.75,2.15,2.15,0,0,1,.35,1.13l-.91.07a1.47,1.47,0,0,0-.5-1A1.93,1.93,0,0,0,158,7.31a2,2,0,0,0-1.25.31,1,1,0,0,0-.39.76.81.81,0,0,0,.28.63,3.77,3.77,0,0,0,1.43.51,9.52,9.52,0,0,1,1.58.46,2.17,2.17,0,0,1,.92.73,1.77,1.77,0,0,1,.3,1,1.94,1.94,0,0,1-.33,1.08,2.15,2.15,0,0,1-.94.79,3.29,3.29,0,0,1-1.38.28,4.12,4.12,0,0,1-1.63-.28,2.27,2.27,0,0,1-1-.85A2.42,2.42,0,0,1,155.12,11.46Z" transform="translate(0 0)"/></g></g><path class="cls-3" d="M80.78,20l-15-11.49L73.56.75H88l7.73,7.73ZM68.09,8.34l12.69,9.74L87.37,13,73.82,2.61Zm7.73-6.09L88.6,12.07l4.86-3.73L87.38,2.25Z" transform="translate(0 0)"/><rect id="_Řez_" data-name=" Řez " class="cls-4" width="162" height="20"/></svg>